# Rhino

v -0.25 -0.62000000476837158 0
v -0.25 -0.12000000476837158 -0.69999998807907104
v -0.25 -0.62000000476837158 -0.69999998807907104
v -0.25 -0.12000000476837158 -0.40000000596046448
v -0.25 -0.5 0
v -0.25 -0.5 -0.40000000596046448
v -0.75 -0.62000000476837158 -0.69999998807907104
v -0.55000001192092896 -0.62000000476837158 0
v -0.75 -0.62000000476837158 -0.5899999737739563
v -0.55000001192092896 -0.62000000476837158 -0.5899999737739563
v -0.75 -0.12000000476837158 -0.69999998807907104
v -1.0499999523162842 -0.25 0
v -0.75 -0.25 0
v -1.0499999523162842 -0.25 -0.5899999737739563
v -0.75 -0.25 -0.5899999737739563
v -0.55000001192092896 -0.75 0
v -0.55000001192092896 -0.75 -0.5899999737739563
v -1.0499999523162842 -0.75 0
v -1.0499999523162842 -0.75 -0.5899999737739563
v -0.75 -0.12000000476837158 0
v -0.5 0 0
v 0 0 0
v -0.5 0 -0.40000000596046448
v 0 0 -0.40000000596046448
v 0 -0.5 0
v 0 -0.5 -0.40000000596046448
v -0.5 -0.12000000476837158 -0.40000000596046448
v -0.5 -0.12000000476837158 0
vt 0 0
vt 0.6902276873588562 0.19685038924217224
vt 0.75565159320831299 0.70754534006118774
vt 0.19685038924217224 0.27559053897857666
vt 0.19538554549217224 0.77974629402160645
vt 0.70325958728790283 0.80562174320220947
vt 0 0.27559053897857666
vt 0.96581822633743286 0.19685038924217224
vt 0 0.77974629402160645
vt 0.19685038924217224 0.15748032927513123
vt 0.34645670652389526 0.45713037252426147
vt 0.58577710390090942 0.80562174320220947
vt 0.047244098037481308 0
vt 0.42913386225700378 0.4906611442565918
vt 0.80266129970550537 0.70754534006118774
vt 0.047244098037481308 0.15748032927513123
vt 0.58661419153213501 0.4906611442565918
vt 0.19685038924217224 0.45713037252426147
vt 0.96581822633743286 0.39223593473434448
vt 0 0.58289587497711182
vt 0.96581822633743286 0
vt 0.6902276873588562 0.31408172845840454
vt 0.42913386225700378 0.062992125749588013
vt 0.75565159320831299 0.58985364437103271
vt 0.92251116037368774 0.39223593473434448
vt 0.050800241529941559 0.47681540250778198
vt 0.92251116037368774 0
vt 0.92251116037368774 0.31408172845840454
vt 0.66141730546951294 0.062992125749588013
vt 0.050800241529941559 0.55555558204650879
vt 0.19538554549217224 0.58289587497711182
vt 0.96581822633743286 0.19538554549217224
vt 0.70325958728790283 0.61023622751235962
vt 0.42913386225700378 0.4921259880065918
vt 0.42913386225700378 0.32808399200439453
vt 0.90059822797775269 0.39370077848434448
vt 0.42913386225700378 0.60877138376235962
vt 0.6902276873588562 0.14458531141281128
vt 0.90059822797775269 0.51139247417449951
vt 0.66141730546951294 0.4921259880065918
vt 0.66141730546951294 0.32808399200439453
vt 0.19538554549217224 0.35870516300201416
vt 0.66141730546951294 0.60877138376235962
vt 0.19538554549217224 0.47681540250778198
vt 0.92251116037368774 0.14458531141281128
vt 0.42913386225700378 0.11417322605848312
vt 0.19685038924217224 0.58289587497711182
vt 0.70472443103790283 0.58985364437103271
vt 0.66141730546951294 0.11417322605848312
vt 0.42766901850700378 0.58289587497711182
vt 0 0.55555558204650879
vt 0.19685038924217224 0.77974629402160645
vt 0.42913386225700378 0.13123360276222229
vt 0.70472443103790283 0.39370077848434448
vt 0.42766901850700378 0.77974629402160645
vt 0.66141730546951294 0.13123360276222229
vt 0 0.35870516300201416
vt 0.6902276873588562 0.19538554549217224
vt 0.42913386225700378 0.61023622751235962
vt 0.95152544975280762 0.51139247417449951
vt 0.41141733527183533 0
vt 0.42913386225700378 0.04724409431219101
vt 0.99853515625 0.60946893692016602
vt 0.21456693112850189 0
vt 0.41141733527183533 0.17935258150100708
vt 0.99853515625 0.80562174320220947
vt 0.41141733527183533 0.15748031437397003
vt 0.58661419153213501 0.04724409431219101
vt 0.39370077848434448 0.35870516300201416
vt 0.21456693112850189 0.15748031437397003
vt 0.41141733527183533 0.33683291077613831
vt 0.39370077848434448 0.55555558204650879
vt 0.21456693112850189 0.17935258150100708
vt 0.42913386225700378 0.39370077848434448
vt 0.80266129970550537 0.80562174320220947
vt 0.21456693112850189 0.33683291077613831
vt 0.58661419153213501 0.39370077848434448
vt 0.19685038924217224 0.55555558204650879
vt 0.58661419153213501 0
vt 0.34645670652389526 0.35870516300201416
vt 0.58577710390090942 0.70792901515960693
vt 0.42913386225700378 0
vt 0.42913386225700378 0.70792901515960693
vt 0.95152544975280762 0.60946893692016602
vn 1 0 0
vn 0 -1 0
vn 0 0 1
vn 1 0 0
vn 0 0 -1
vn 0 1 0
vn 1 0 0
vn 0 -1 0
vn 0 0 -1
vn 1 0 0
vn 0 0 -1
vn 0 1 0
vn 1 0 0
vn 0 -1 0
vn 0 0 1
vn 1 0 0
vn 0 -1 0
vn 0 0 -1
vn 0 -1 0
vn 0 0 -1
vn -1 0 0
vn 0 -1 0
vn 1 0 0
vn 0 0 1
vn 0 -1 0
vn 0 0 -1
vn -1 0 0
vn 0 -1 0
vn 1 0 0
vn 0 0 -1
vn 0 0 -1
vn -1 0 0
vn 0 1 0
vn 0 1 0
vn -1 0 0
vn 0 0 1
vn 0 1 0
vn -1 0 0
vn 0 0 1
vn 0 1 0
vn -1 0 0
vn 0 0 -1
vn 0 1 0
vn 0 0 -1
vn -1 0 0
vn 1 0 0
vn 0 -1 0
vn 0 0 1
vn 1 0 0
vn 0 -1 0
vn 0 0 -1
vn 0 -1 0
vn -1 0 0
vn 0 0 1
vn 0 -1 0
vn -1 0 0
vn 0 0 -1
vn -1 0 0
vn 0 1 0
vn 0 0 1
vn 0 1 0
vn -1 0 0
vn 0 0 1
vn 0 1 0
vn 1 0 0
vn 0 0 1
vn 0 1 0
vn -1 0 0
vn 0 0 -1
vn 0 1 0
vn 1 0 0
vn 0 0 -1
vn 1 0 0
vn 0 -1 0
vn 0 0 1
vn 1 0 0
vn 0 -1 0
vn 0 0 -1
vn -1 0 0
vn 0 0 -1
vn 0 1 0
vn -1 0 0
vn 0 1 0
vn 0 0 1
f 6/16/16 5/13/13 1/1/1
f 1/1/1 3/7/7 6/16/16
f 3/7/7 2/4/4 4/10/10
f 3/7/7 4/10/10 6/16/16
f 1/2/2 8/22/22 10/28/28
f 10/28/28 9/25/25 7/19/19
f 7/19/19 3/8/8 10/28/28
f 3/8/8 1/2/2 10/28/28
f 7/20/20 11/31/31 2/5/5
f 13/37/37 15/43/43 14/40/40
f 16/46/46 17/49/49 10/29/29
f 18/52/52 19/55/55 17/50/50
f 12/35/35 14/41/41 19/56/56
f 19/57/57 14/42/42 9/26/26
f 14/42/42 15/44/44 9/26/26
f 9/26/26 10/30/30 17/51/51
f 9/26/26 17/51/51 19/57/57
f 15/45/45 13/38/38 20/58/58
f 20/58/58 11/32/32 15/45/45
f 11/32/32 7/21/21 9/27/27
f 11/32/32 9/27/27 15/45/45
f 22/64/64 24/70/70 23/67/67
f 25/73/73 26/76/76 24/71/71
f 5/14/14 6/17/17 26/77/77
f 21/62/62 23/68/68 27/79/79
f 27/80/80 23/69/69 4/11/11
f 23/69/69 24/72/72 4/11/11
f 24/72/72 26/78/78 6/18/18
f 24/72/72 6/18/18 4/11/11
f 20/59/59 28/83/83 27/81/81
f 27/81/81 4/12/12 2/6/6
f 2/6/6 11/33/33 27/81/81
f 11/33/33 20/59/59 27/81/81
f 8/24/24 1/3/3 5/15/15
f 5/15/15 25/75/75 22/66/66
f 22/66/66 21/63/63 28/84/84
f 28/84/84 20/60/60 13/39/39
f 13/39/39 12/36/36 18/54/54
f 18/54/54 16/48/48 8/24/24
f 8/24/24 5/15/15 28/84/84
f 5/15/15 22/66/66 28/84/84
f 13/39/39 18/54/54 8/24/24
f 13/39/39 8/24/24 28/84/84
f 7/20/20 2/5/5 3/9/9
f 13/37/37 14/40/40 12/34/34
f 16/46/46 10/29/29 8/23/23
f 18/52/52 17/50/50 16/47/47
f 12/35/35 19/56/56 18/53/53
f 22/64/64 23/67/67 21/61/61
f 25/73/73 24/71/71 22/65/65
f 5/14/14 26/77/77 25/74/74
f 21/62/62 27/79/79 28/82/82
